HIERARCHY
ROOT Root
{
  OFFSET 0.0 0.0 0.0
  CHANNELS 6 Xposition Yposition Zposition Zrotation Yrotation Xrotation
  JOINT Hips
  {
    OFFSET 0.0 100.0 0.0
    CHANNELS 6 Xposition Yposition Zposition Zrotation Yrotation Xrotation
    JOINT Spine1
    {
      OFFSET -0.013727 5.003763 -0.053727
      CHANNELS 3 Zrotation Yrotation Xrotation
      JOINT Spine2
      {
        OFFSET -0.0 7.125301 -0.029825
        CHANNELS 3 Zrotation Yrotation Xrotation
        JOINT Chest
        {
          OFFSET -1e-06 7.550063 -0.815971
          CHANNELS 3 Zrotation Yrotation Xrotation
          JOINT Neck1
          {
            OFFSET -0.181677 26.311295 -0.553348
            CHANNELS 3 Zrotation Yrotation Xrotation
            JOINT Neck2
            {
              OFFSET -3e-06 7.709397 2.302585
              CHANNELS 3 Zrotation Yrotation Xrotation
              JOINT Head
              {
                OFFSET -5e-06 6.128916 1.953709
                CHANNELS 3 Zrotation Yrotation Xrotation
                JOINT HeadEnd
                {
                  OFFSET 0.003598 16.065403 -1.835379
                  CHANNELS 3 Zrotation Yrotation Xrotation
                }
                JOINT Jaw
                {
                  OFFSET 0.002637 0.475592 3.094941
                  CHANNELS 3 Zrotation Yrotation Xrotation
                }
                JOINT LeftEye
                {
                  OFFSET 3.206381 5.380205 7.586883
                  CHANNELS 3 Zrotation Yrotation Xrotation
                }
                JOINT RightEye
                {
                  OFFSET -3.22244 5.361869 7.558234
                  CHANNELS 3 Zrotation Yrotation Xrotation
                }
              }
            }
          }
          JOINT LeftShoulder
          {
            OFFSET 1.621652 23.237164 5.113413
            CHANNELS 3 Zrotation Yrotation Xrotation
            JOINT LeftArm
            {
              OFFSET 14.919846 2e-06 -5.502326
              CHANNELS 3 Zrotation Yrotation Xrotation
              JOINT LeftForeArm
              {
                OFFSET 28.739307 0.0 -0.002588
                CHANNELS 3 Zrotation Yrotation Xrotation
                JOINT LeftHand
                {
                  OFFSET 27.093981 -1e-06 0.002609
                  CHANNELS 3 Zrotation Yrotation Xrotation
                  JOINT LeftHandThumb1
                  {
                    OFFSET 2.276482 -1.392045 3.191413
                    CHANNELS 3 Zrotation Yrotation Xrotation
                    JOINT LeftHandThumb2
                    {
                      OFFSET 4.012836 -1.828127 1.641654
                      CHANNELS 3 Zrotation Yrotation Xrotation
                      JOINT LeftHandThumb3
                      {
                        OFFSET 2.798515 0.0 -3e-06
                        CHANNELS 3 Zrotation Yrotation Xrotation
                        JOINT LeftHandThumbEnd
                        {
                          OFFSET 3.180793 -4e-06 4e-06
                          CHANNELS 3 Zrotation Yrotation Xrotation
                        }
                      }
                    }
                  }
                  JOINT LeftHandIndex1
                  {
                    OFFSET 3.247555 -0.531998 2.296169
                    CHANNELS 3 Zrotation Yrotation Xrotation
                    JOINT LeftHandIndex2
                    {
                      OFFSET 6.364578 0.01206 0.1786
                      CHANNELS 3 Zrotation Yrotation Xrotation
                      JOINT LeftHandIndex3
                      {
                        OFFSET 3.662364 0.0 0.0
                        CHANNELS 3 Zrotation Yrotation Xrotation
                        JOINT LeftHandIndex4
                        {
                          OFFSET 2.329242 4e-06 4e-06
                          CHANNELS 3 Zrotation Yrotation Xrotation
                          JOINT LeftHandIndexEnd
                          {
                            OFFSET 2.759615 -0.180537 -0.113024
                            CHANNELS 3 Zrotation Yrotation Xrotation
                          }
                        }
                      }
                    }
                  }
                  JOINT LeftHandMiddle1
                  {
                    OFFSET 3.163495 0.240981 1.000332
                    CHANNELS 3 Zrotation Yrotation Xrotation
                    JOINT LeftHandMiddle2
                    {
                      OFFSET 6.19078 -0.259278 -1.002548
                      CHANNELS 3 Zrotation Yrotation Xrotation
                      JOINT LeftHandMiddle3
                      {
                        OFFSET 4.35652 -4e-06 -1e-06
                        CHANNELS 3 Zrotation Yrotation Xrotation
                        JOINT LeftHandMiddle4
                        {
                          OFFSET 2.996877 -8e-06 0.0
                          CHANNELS 3 Zrotation Yrotation Xrotation
                          JOINT LeftHandMiddleEnd
                          {
                            OFFSET 2.304287 -0.294569 -0.031741
                            CHANNELS 3 Zrotation Yrotation Xrotation
                          }
                        }
                      }
                    }
                  }
                  JOINT LeftHandRing1
                  {
                    OFFSET 2.882643 -0.053652 -0.322543
                    CHANNELS 3 Zrotation Yrotation Xrotation
                    JOINT LeftHandRing2
                    {
                      OFFSET 5.854541 -0.486202 -1.373841
                      CHANNELS 3 Zrotation Yrotation Xrotation
                      JOINT LeftHandRing3
                      {
                        OFFSET 4.350578 0.0 3e-06
                        CHANNELS 3 Zrotation Yrotation Xrotation
                        JOINT LeftHandRing4
                        {
                          OFFSET 2.651321 7e-06 2e-06
                          CHANNELS 3 Zrotation Yrotation Xrotation
                          JOINT LeftHandRingEnd
                          {
                            OFFSET 1.936105 0.077687 -7.1e-05
                            CHANNELS 3 Zrotation Yrotation Xrotation
                          }
                        }
                      }
                    }
                  }
                  JOINT LeftHandPinky1
                  {
                    OFFSET 2.8655 -0.310005 -1.600378
                    CHANNELS 3 Zrotation Yrotation Xrotation
                    JOINT LeftHandPinky2
                    {
                      OFFSET 5.087849 -1.331141 -1.77123
                      CHANNELS 3 Zrotation Yrotation Xrotation
                      JOINT LeftHandPinky3
                      {
                        OFFSET 3.070974 4e-06 0.0
                        CHANNELS 3 Zrotation Yrotation Xrotation
                        JOINT LeftHandPinky4
                        {
                          OFFSET 1.549672 0.0 1e-06
                          CHANNELS 3 Zrotation Yrotation Xrotation
                          JOINT LeftHandPinkyEnd
                          {
                            OFFSET 1.944893 -0.157802 0.057219
                            CHANNELS 3 Zrotation Yrotation Xrotation
                          }
                        }
                      }
                    }
                  }
                }
              }
            }
          }
          JOINT RightShoulder
          {
            OFFSET -1.380118 23.180309 5.214158
            CHANNELS 3 Zrotation Yrotation Xrotation
            JOINT RightArm
            {
              OFFSET -15.037196 1.2e-05 -5.545604
              CHANNELS 3 Zrotation Yrotation Xrotation
              JOINT RightForeArm
              {
                OFFSET -28.736639 2e-06 -0.002597
                CHANNELS 3 Zrotation Yrotation Xrotation
                JOINT RightHand
                {
                  OFFSET -27.133619 -0.0 0.002613
                  CHANNELS 3 Zrotation Yrotation Xrotation
                  JOINT RightHandThumb1
                  {
                    OFFSET -2.274032 -1.383988 3.163127
                    CHANNELS 3 Zrotation Yrotation Xrotation
                    JOINT RightHandThumb2
                    {
                      OFFSET -4.011429 -1.827466 1.640914
                      CHANNELS 3 Zrotation Yrotation Xrotation
                      JOINT RightHandThumb3
                      {
                        OFFSET -2.794935 -4e-06 -3e-06
                        CHANNELS 3 Zrotation Yrotation Xrotation
                        JOINT RightHandThumbEnd
                        {
                          OFFSET -3.183852 4e-06 1e-06
                          CHANNELS 3 Zrotation Yrotation Xrotation
                        }
                      }
                    }
                  }
                  JOINT RightHandIndex1
                  {
                    OFFSET -3.253266 -0.520057 2.282866
                    CHANNELS 3 Zrotation Yrotation Xrotation
                    JOINT RightHandIndex2
                    {
                      OFFSET -6.341917 0.012471 0.178266
                      CHANNELS 3 Zrotation Yrotation Xrotation
                      JOINT RightHandIndex3
                      {
                        OFFSET -3.654871 -8e-06 -0.0
                        CHANNELS 3 Zrotation Yrotation Xrotation
                        JOINT RightHandIndex4
                        {
                          OFFSET -2.327586 0.0 1e-06
                          CHANNELS 3 Zrotation Yrotation Xrotation
                          JOINT RightHandIndexEnd
                          {
                            OFFSET -2.76179 -0.180656 -0.113078
                            CHANNELS 3 Zrotation Yrotation Xrotation
                          }
                        }
                      }
                    }
                  }
                  JOINT RightHandMiddle1
                  {
                    OFFSET -3.168106 0.246593 1.00103
                    CHANNELS 3 Zrotation Yrotation Xrotation
                    JOINT RightHandMiddle2
                    {
                      OFFSET -6.180828 -0.258836 -1.000895
                      CHANNELS 3 Zrotation Yrotation Xrotation
                      JOINT RightHandMiddle3
                      {
                        OFFSET -4.348901 0.0 -0.0
                        CHANNELS 3 Zrotation Yrotation Xrotation
                        JOINT RightHandMiddle4
                        {
                          OFFSET -3.00024 -4e-06 -2e-06
                          CHANNELS 3 Zrotation Yrotation Xrotation
                          JOINT RightHandMiddleEnd
                          {
                            OFFSET -2.30252 -0.29437 -0.031706
                            CHANNELS 3 Zrotation Yrotation Xrotation
                          }
                        }
                      }
                    }
                  }
                  JOINT RightHandRing1
                  {
                    OFFSET -2.88569 -0.067952 -0.308858
                    CHANNELS 3 Zrotation Yrotation Xrotation
                    JOINT RightHandRing2
                    {
                      OFFSET -5.854198 -0.48613 -1.373731
                      CHANNELS 3 Zrotation Yrotation Xrotation
                      JOINT RightHandRing3
                      {
                        OFFSET -4.33881 -4e-06 -0.0
                        CHANNELS 3 Zrotation Yrotation Xrotation
                        JOINT RightHandRing4
                        {
                          OFFSET -2.654903 -4e-06 4e-06
                          CHANNELS 3 Zrotation Yrotation Xrotation
                          JOINT RightHandRingEnd
                          {
                            OFFSET -1.933568 0.077527 -5.2e-05
                            CHANNELS 3 Zrotation Yrotation Xrotation
                          }
                        }
                      }
                    }
                  }
                  JOINT RightHandPinky1
                  {
                    OFFSET -2.866425 -0.342796 -1.584145
                    CHANNELS 3 Zrotation Yrotation Xrotation
                    JOINT RightHandPinky2
                    {
                      OFFSET -5.091371 -1.332055 -1.772385
                      CHANNELS 3 Zrotation Yrotation Xrotation
                      JOINT RightHandPinky3
                      {
                        OFFSET -3.062664 -4e-06 1e-06
                        CHANNELS 3 Zrotation Yrotation Xrotation
                        JOINT RightHandPinky4
                        {
                          OFFSET -1.546529 4e-06 -2e-06
                          CHANNELS 3 Zrotation Yrotation Xrotation
                          JOINT RightHandPinkyEnd
                          {
                            OFFSET -1.945119 -0.157718 0.057211
                            CHANNELS 3 Zrotation Yrotation Xrotation
                          }
                        }
                      }
                    }
                  }
                }
              }
            }
          }
        }
      }
    }
    JOINT LeftLeg
    {
      OFFSET 10.043214 -8.434526 2.595655
      CHANNELS 3 Zrotation Yrotation Xrotation
      JOINT LeftShin
      {
        OFFSET -1e-06 -43.221752 -0.802913
        CHANNELS 3 Zrotation Yrotation Xrotation
        JOINT LeftFoot
        {
          OFFSET 1e-06 -42.155094 -3.481523
          CHANNELS 3 Zrotation Yrotation Xrotation
          JOINT LeftToeBase
          {
            OFFSET 0.0 -5.059472 13.231529
            CHANNELS 3 Zrotation Yrotation Xrotation
            JOINT LeftToeEnd
            {
              OFFSET -0.009607 -1.647619 6.513017
              CHANNELS 3 Zrotation Yrotation Xrotation
            }
          }
        }
      }
    }
    JOINT RightLeg
    {
      OFFSET -10.047278 -8.29526 2.620317
      CHANNELS 3 Zrotation Yrotation Xrotation
      JOINT RightShin
      {
        OFFSET 1e-06 -43.362206 -0.805556
        CHANNELS 3 Zrotation Yrotation Xrotation
        JOINT RightFoot
        {
          OFFSET 2e-06 -42.117393 -3.478398
          CHANNELS 3 Zrotation Yrotation Xrotation
          JOINT RightToeBase
          {
            OFFSET -0.0 -5.079609 13.284196
            CHANNELS 3 Zrotation Yrotation Xrotation
            JOINT RightToeEnd
            {
              OFFSET 0.009532 -1.634378 6.460591
              CHANNELS 3 Zrotation Yrotation Xrotation
            }
          }
        }
      }
    }
  }
}
MOTION
Frames: 4
Frame Time: 0.03333333333333333
0.0 0.0 0.0 0.0 -0.0 0.0 -1.443965 99.257683 5.981178 -0.28441 0.404135 1.033816 0.405474 -0.096697 -1.251857 -0.189907 -0.071575 -5.062165 0.115922 -1.582704 9.175736 2.131807 1.91445 4.012525 -0.38194 0.142479 -3.586063 -1.71843 0.165844 -4.236238 7.7e-05 -2.3e-05 6e-06 -0.004156 0.013331 -0.00267 0.748147 -3.717936 -10.548329 -0.759889 3.749332 -10.545805 -11.009338 -7.83727 10.37878 -61.183025 -13.346168 22.576813 0.338804 -15.223845 -0.177338 -1.452621 -8.923973 -10.999627 -5.882105 9.861288 0.70259 -10.936875 -0.360577 7.1562 2e-06 8.77483 -2e-06 -16.027601 18.00494 5.879521 -1.844032 2.498505 -2.507277 -10.163601 4.678945 4.621107 -20.97603 -7e-06 -0.0 -21.226292 2.451695 -3.593999 2e-06 -6e-06 -0.0 -1.362682 2.240798 -0.746323 -21.334921 0.584905 3.008319 -13.821217 -6e-06 -0.0 -23.887177 -0.249081 -0.839483 -59.861294 2.38693 -1.226768 -0.294024 1.679687 0.833256 -14.218212 0.093212 1.300578 -34.212063 -0.287573 0.967169 -20.03322 0.964533 1.212842 -2e-06 -1e-06 -2e-06 -3.440389 0.788233 0.501655 -15.928191 -3.167313 2.999704 -6.338827 -2e-06 -2e-06 -18.123447 3.648181 -4.905671 -3e-06 -0.0 -2e-06 13.263653 11.440051 10.124847 62.085476 7.778205 11.481454 -0.03181 21.817825 -0.097317 1.396501 6.656374 1.438153 2.24354 -5.255035 -3.180156 14.282885 -0.826594 6.952501 -4e-06 -12.690601 1e-06 16.020273 -17.873808 2.721624 1.665666 -1.95592 -2.878299 4.727797 -4.170586 4.993921 11.020522 6e-06 1e-06 12.109048 -3.735714 -2.866784 -0.0 -0.0 0.0 1.291984 -1.928548 -1.498088 14.800122 0.567471 3.865605 14.242562 -1.341734 -6.660654 19.631958 0.143928 -0.648243 50.183266 -0.646066 -6.357153 0.353028 -1.51115 -0.031941 20.222784 3.684309 2.316631 18.787266 5e-06 3e-06 10.751623 -0.479867 1.397907 1e-06 1e-06 -2e-06 3.273805 0.305946 -0.580111 21.486801 11.83037 2.266133 8.162922 3e-06 1e-06 18.399071 -3.798984 -4.940571 2e-06 -0.0 -2e-06 3.011911 -1.215453 3.234825 0.010262 -0.243697 3.795808 -3.43522 3.633509 -7.267595 1.659334 -1.859519 -0.864909 -0.0 0.0 2e-06 -5.970437 -5.80288 4.799025 -0.022496 0.316594 1.907565 8.745501 -5.393451 -8.048905 -1.409966 0.976995 -1.657994 -0.0 -0.0 -1e-06 
0.0 0.0 0.0 0.0 -0.0 0.0 -1.488628 99.262909 6.584036 -0.321922 0.463762 1.15622 0.430911 -0.104389 -1.199949 -0.166639 -0.018527 -5.074906 0.105371 -1.572511 9.165848 2.1806 1.883107 3.961077 -0.421072 0.147509 -3.578976 -1.723929 0.168544 -4.206148 7.7e-05 -2.2e-05 6e-06 0.001776 0.008498 -0.013562 0.752289 -3.718835 -10.557226 -0.752573 3.740349 -10.559788 -10.833086 -7.924517 10.36653 -61.236301 -13.291243 22.790071 0.362584 -15.101049 -0.172526 -1.587275 -8.873904 -10.568933 -5.882097 9.861274 0.702588 -10.936854 -0.360575 7.156199 -0.0 8.774815 -3e-06 -16.112846 18.014315 5.906239 -1.84403 2.4985 -2.507275 -10.163584 4.678938 4.621102 -20.975992 -4e-06 2e-06 -21.226254 2.451692 -3.593996 0.0 -6e-06 -2e-06 -1.36268 2.240797 -0.746323 -21.334883 0.584908 3.00832 -13.821193 -3e-06 2e-06 -23.887135 -0.249077 -0.839482 -60.016441 2.393727 -1.165433 -0.294024 1.679685 0.833255 -14.218186 0.093214 1.30058 -34.211994 -0.287565 0.967171 -20.033184 0.964535 1.212843 -1e-06 -0.0 -2e-06 -3.440383 0.788233 0.501654 -15.928162 -3.167308 2.999702 -6.338816 -1e-06 -1e-06 -18.123423 3.648179 -4.905664 -3e-06 -0.0 -2e-06 12.906868 11.391403 10.138227 62.490891 7.843523 11.78282 -0.109111 22.030197 -0.092769 1.284435 6.507492 1.32145 2.24354 -5.255033 -3.180155 14.282871 -0.826594 6.952497 -1e-06 -12.69059 -3e-06 15.989724 -17.840796 2.700399 1.665663 -1.95592 -2.878296 4.727794 -4.170583 4.993919 11.020512 3e-06 -1e-06 12.109035 -3.735713 -2.86678 0.0 0.0 -1e-06 1.291982 -1.928547 -1.498085 14.800108 0.567466 3.865605 14.242554 -1.341736 -6.660651 19.631937 0.143924 -0.648243 50.099648 -0.630331 -6.336937 0.353028 -1.511148 -0.03194 20.222761 3.684304 2.316629 18.787245 1e-06 0.0 10.751615 -0.479868 1.397905 3e-06 2e-06 0.0 3.273802 0.305946 -0.580109 21.486786 11.830358 2.266134 8.162916 2e-06 1e-06 18.399055 -3.798984 -4.940568 3e-06 -0.0 -1e-06 3.058135 -1.265355 2.992581 0.006418 -0.276882 4.17603 -3.395568 3.681922 -7.616184 1.651199 -1.841542 -0.913482 0.0 0.0 2e-06 -5.91429 -5.869659 4.726458 -0.028193 0.285832 2.032841 8.774187 -5.307632 -8.309451 -1.409198 0.963758 -1.814763 -0.0 -0.0 -1e-06 
0.0 0.0 0.0 0.0 -0.0 0.0 -1.502572 99.25251 6.874534 -0.376224 0.556175 1.277817 0.457087 -0.090894 -1.157251 -0.163208 -0.005062 -5.09739 0.11575 -1.588401 9.216072 2.246439 1.863434 3.981287 -0.458511 0.224208 -3.574469 -1.75107 0.161991 -4.235596 7.7e-05 -2.2e-05 6e-06 0.005185 -0.000485 -0.015097 0.748373 -3.728709 -10.568265 -0.742134 3.73221 -10.575255 -10.660096 -8.000836 10.349857 -61.262646 -13.271814 23.082251 0.380949 -15.053077 -0.160207 -1.722182 -8.793503 -10.318786 -5.882103 9.861284 0.702592 -10.936868 -0.360577 7.156202 1e-06 8.774826 -3e-06 -16.174864 18.044643 5.924007 -1.844033 2.498505 -2.507276 -10.163596 4.678943 4.621106 -20.976021 -6e-06 2e-06 -21.22628 2.451695 -3.593998 1e-06 -6e-06 -0.0 -1.362682 2.240798 -0.746322 -21.334908 0.584906 3.008323 -13.82121 -5e-06 2e-06 -23.887167 -0.249081 -0.839481 -60.115349 2.390692 -1.110068 -0.294024 1.679688 0.833257 -14.218204 0.093214 1.300581 -34.212036 -0.287566 0.967174 -20.033205 0.964537 1.212844 0.0 -1e-06 -1e-06 -3.440387 0.788234 0.501656 -15.928185 -3.167313 2.999708 -6.338823 -0.0 -1e-06 -18.123444 3.648183 -4.905669 -2e-06 -0.0 -1e-06 12.638824 11.346697 10.151692 62.795975 7.919816 12.268866 -0.200076 22.295063 -0.100082 1.191281 6.377717 1.105805 2.243543 -5.255037 -3.180156 14.28289 -0.826595 6.952499 -2e-06 -12.690606 -2e-06 15.993288 -17.837526 2.674191 1.665667 -1.955922 -2.878298 4.727799 -4.170589 4.993921 11.020529 3e-06 -2e-06 12.109055 -3.735717 -2.866783 0.0 -0.0 -1e-06 1.291986 -1.92855 -1.498089 14.800129 0.567468 3.865604 14.242574 -1.341738 -6.66066 19.631969 0.143927 -0.648248 50.013115 -0.632531 -6.349285 0.353029 -1.511151 -0.031941 20.222788 3.684311 2.316623 18.787271 6e-06 -5e-06 10.751629 -0.479865 1.397901 2e-06 1e-06 -2e-06 3.273807 0.305947 -0.580111 21.486813 11.830376 2.266128 8.162928 4e-06 -2e-06 18.399084 -3.798982 -4.940578 2e-06 -0.0 -1e-06 3.108574 -1.367176 2.766772 0.009002 -0.27266 4.588458 -3.40786 3.722402 -8.072263 1.64518 -1.835048 -0.939243 0.0 -0.0 2e-06 -5.839105 -5.927646 4.649135 -0.031454 0.265329 2.220769 8.717915 -5.186221 -8.587538 -1.404058 0.948439 -1.893965 0.0 0.0 -1e-06 
0.0 0.0 0.0 0.0 -0.0 0.0 -1.523122 99.198494 7.105048 -0.455301 0.631217 1.421431 0.497811 -0.080205 -1.118041 -0.164087 0.006525 -5.114055 0.145299 -1.621536 9.246371 2.283337 1.872614 4.039156 -0.47721 0.284072 -3.583204 -1.794795 0.165614 -4.305357 7.7e-05 -2.2e-05 6e-06 0.006981 -0.001646 -0.012852 0.744237 -3.729877 -10.570288 -0.734673 3.731041 -10.579507 -10.543536 -8.030891 10.296939 -61.280842 -13.200841 23.248552 0.338763 -15.169736 -0.130849 -1.735808 -8.73321 -10.19961 -5.882109 9.86129 0.702594 -10.936877 -0.360574 7.156209 1e-06 8.774829 1e-06 -16.206814 18.062855 5.941613 -1.844033 2.498505 -2.50728 -10.163606 4.678946 4.621109 -20.976038 -4e-06 -0.0 -21.226295 2.451697 -3.593999 1e-06 -6e-06 -1e-06 -1.362682 2.240799 -0.746322 -21.334925 0.584909 3.008326 -13.821221 -3e-06 0.0 -23.887184 -0.249079 -0.839482 -60.156761 2.369046 -1.065732 -0.294025 1.679688 0.833255 -14.218217 0.093215 1.300581 -34.212067 -0.287565 0.967171 -20.033226 0.964537 1.212843 -1e-06 -1e-06 -1e-06 -3.440391 0.788233 0.501656 -15.928192 -3.167311 2.999707 -6.33883 -1e-06 0.0 -18.123457 3.648183 -4.905673 -3e-06 0.0 -2e-06 12.464979 11.279781 10.093084 63.004295 7.935607 12.704304 -0.213173 22.568659 -0.100076 1.16314 6.230748 1.11185 2.243541 -5.255037 -3.180157 14.282887 -0.826592 6.952501 -4e-06 -12.690601 0.0 16.00057 -17.842653 2.655437 1.665666 -1.955921 -2.878299 4.727797 -4.170585 4.993924 11.020523 3e-06 -1e-06 12.10905 -3.735714 -2.866783 0.0 -0.0 -2e-06 1.291984 -1.928548 -1.498088 14.800123 0.567471 3.865606 14.242564 -1.341734 -6.660657 19.631956 0.143928 -0.648243 49.961361 -0.625891 -6.350089 0.353029 -1.51115 -0.031941 20.222784 3.684312 2.316631 18.787266 6e-06 0.0 10.751625 -0.479869 1.397907 3e-06 1e-06 0.0 3.273806 0.305947 -0.58011 21.486809 11.830376 2.26613 8.162922 4e-06 -1e-06 18.399076 -3.798982 -4.940572 2e-06 1e-06 -2e-06 3.201812 -1.460008 2.54633 0.015234 -0.266358 5.026718 -3.457851 3.755785 -8.623072 1.642254 -1.835095 -0.934859 0.0 0.0 2e-06 -5.740502 -5.989222 4.631493 -0.034406 0.242225 2.333511 8.666967 -5.09667 -8.926976 -1.399198 0.950543 -1.924587 -0.0 0.0 -1e-06 
